<!DOCTYPE svg PUBLIC "-//W3C//DTD SVG 1.1//EN" "http://www.w3.org/Graphics/SVG/1.1/DTD/svg11.dtd">
<!-- Uploaded to: SVG Repo, www.svgrepo.com, Transformed by: SVG Repo Mixer Tools -->
<svg fill="#FFF5F2" width="800px" height="800px" viewBox="0 0 32 32" version="1.1" xmlns="http://www.w3.org/2000/svg">
<g id="SVGRepo_bgCarrier" stroke-width="0"/>
<g id="SVGRepo_tracerCarrier" stroke-linecap="round" stroke-linejoin="round"/>
<g id="SVGRepo_iconCarrier"> <title>center-alt-text-bubble</title> <path d="M0 20q0 2.496 1.76 4.256t4.256 1.76h5.984l4 5.984 4-5.984h6.016q2.464 0 4.224-1.76t1.76-4.256v-13.984q0-2.496-1.76-4.256t-4.224-1.76h-20q-2.496 0-4.256 1.76t-1.76 4.256v13.984zM6.016 20v-1.984h9.984v1.984h-9.984zM6.016 16v-1.984h20v1.984h-20zM6.016 12v-1.984h20v1.984h-20zM6.016 8v-1.984h20v1.984h-20z"/> </g>
</svg>